#N canvas 148 147 707 478 24;
#N canvas 168 143 621 553 (subpatch) 0;
#X obj 0 2 vsl 70 235 0 100 0 0 \$0-tension \$0-tension.r empty 0 -9
0 10 -1 -258113 -1 11700 0;
#N canvas 0 22 509 485 nth 0;
#X obj 53 182 list;
#X msg 142 181 set \, adddollar \$1;
#X obj 120 299 outlet;
#X obj 132 2 inlet;
#X obj 53 2 inlet;
#X msg 120 227 \$3;
#X obj 53 90 t b f;
#X obj 142 139 + 1;
#X connect 0 0 5 0;
#X connect 1 0 5 0;
#X connect 3 0 0 1;
#X connect 4 0 6 0;
#X connect 5 0 2 0;
#X connect 6 0 0 0;
#X connect 6 1 7 0;
#X connect 7 0 1 0;
#X restore 180 82 pd nth;
#X obj 0 325 loadbang;
#X msg 0 361 dsp 1;
#X obj 0 397 s pd;
#N canvas 361 75 919 556 interface 0;
#X obj 92 464 outlet;
#N canvas 0 22 450 300 once 0;
#X obj 68 65 inlet;
#X obj 68 351 outlet;
#X obj 312 107 bang;
#X msg 312 152 1;
#X msg 249 150 0;
#X obj 68 114 t a b;
#X obj 68 302 t a b;
#X obj 68 246 spigot;
#X obj 312 67 inlet;
#X obj 210 203 f 1;
#X connect 0 0 5 0;
#X connect 2 0 3 0;
#X connect 3 0 9 1;
#X connect 4 0 9 1;
#X connect 5 0 7 0;
#X connect 5 1 9 0;
#X connect 6 0 1 0;
#X connect 6 1 4 0;
#X connect 7 0 6 0;
#X connect 8 0 2 0;
#X connect 9 0 7 1;
#X restore 45 328 pd once;
#X obj 462 332 r \$0-end;
#X obj 32 556 s \$0-tension.r;
#X msg 32 520 50;
#X obj 5 417 loadbang;
#X obj -61 464 r \$0-reset;
#X obj 67 104 f;
#X obj 121 104 + 1;
#X obj 186 -29 r \$0-reset;
#X msg 244 103 color 22 13 0;
#X obj 244 141 s \$0-go.r;
#X obj 15 -29 r \$0-next;
#X obj -120 177 f;
#X obj -120 -29 r \$0-play;
#X obj 254 533 s \$0-go.r;
#X obj 45 364 t b f b;
#X obj 462 536 s \$0-go.r;
#X obj 247 291 s \$0-go.r;
#X msg 247 253 label \$1;
#X obj 247 215 makefilename Sound::%i;
#N canvas 0 22 494 478 once 0;
#X obj 68 65 inlet;
#X obj 68 351 outlet;
#X obj 312 107 bang;
#X msg 312 152 1;
#X msg 249 150 0;
#X obj 68 114 t a b;
#X obj 68 302 t a b;
#X obj 68 246 spigot;
#X obj 210 203 f 0;
#X obj 312 67 inlet;
#X obj 224 64 inlet;
#X connect 0 0 5 0;
#X connect 2 0 3 0;
#X connect 3 0 8 1;
#X connect 4 0 8 1;
#X connect 5 0 7 0;
#X connect 5 1 8 0;
#X connect 6 0 1 0;
#X connect 6 1 4 0;
#X connect 7 0 6 0;
#X connect 8 0 7 1;
#X connect 9 0 2 0;
#X connect 10 0 4 0;
#X restore 15 56 pd once;
#X obj 638 363 f;
#X obj 638 399 == 12;
#X msg 669 503 color 22 13 0;
#X obj 669 541 s \$0-done.r;
#X obj 638 435 sel 1;
#X obj 643 304 s \$0-done.r;
#X obj 643 226 r \$0-reset;
#X msg 643 267 color 22 22 22;
#X msg 709 148 color 22 22 22;
#X obj 709 184 s \$0-submit.r;
#X obj 873 538 s \$0-submit.r;
#X msg 873 502 color 0 0 0;
#X obj 726 398 s \$0-allowSave;
#X msg 254 495 color 15 13 22;
#X msg 462 498 color 16 13 22;
#X obj 70 146 min 12;
#X obj 504 128 s Curve;
#X obj 504 45 r \$0-reset;
#X msg 504 87 resize 200 \, const 50;
#X obj 186 33 0;
#X obj -120 213 b;
#X connect 1 0 16 0;
#X connect 2 0 36 0;
#X connect 2 0 1 1;
#X connect 2 0 22 0;
#X connect 2 0 21 2;
#X connect 4 0 3 0;
#X connect 5 0 4 0;
#X connect 6 0 4 0;
#X connect 7 0 8 0;
#X connect 7 0 37 0;
#X connect 8 0 7 1;
#X connect 9 0 10 0;
#X connect 9 0 41 0;
#X connect 9 0 1 1;
#X connect 10 0 11 0;
#X connect 12 0 21 0;
#X connect 13 0 1 0;
#X connect 13 0 42 0;
#X connect 14 0 13 0;
#X connect 16 0 4 0;
#X connect 16 1 0 0;
#X connect 16 2 35 0;
#X connect 16 2 40 0;
#X connect 19 0 18 0;
#X connect 20 0 19 0;
#X connect 21 0 7 0;
#X connect 21 0 10 0;
#X connect 21 0 4 0;
#X connect 21 0 40 0;
#X connect 22 0 23 0;
#X connect 23 0 26 0;
#X connect 23 0 34 0;
#X connect 24 0 25 0;
#X connect 26 0 24 0;
#X connect 26 0 33 0;
#X connect 28 0 29 0;
#X connect 28 0 30 0;
#X connect 29 0 27 0;
#X connect 30 0 31 0;
#X connect 33 0 32 0;
#X connect 35 0 15 0;
#X connect 36 0 17 0;
#X connect 37 0 13 1;
#X connect 37 0 22 1;
#X connect 37 0 20 0;
#X connect 39 0 40 0;
#X connect 40 0 38 0;
#X connect 41 0 7 0;
#X connect 42 0 21 1;
#X restore 180 4 pd interface;
#N canvas 316 147 450 458 randomOrder 0;
#X obj 64 138 until;
#X obj 176 147 12;
#X msg 64 98 12;
#X obj 64 258 list prepend;
#X obj 64 218 + 1;
#X obj 23 18 r \$0-reset;
#X obj 23 374 outlet;
#X obj 266 289 t l;
#X obj 152 98 s \$0-init;
#N canvas 0 22 806 683 urn 0;
#X obj 218 581 tabread \$0-urn;
#X obj 148 531 tabwrite \$0-urn;
#X obj 218 460 t a a;
#X obj 148 390 - 1;
#X obj 97 254 select 0;
#X obj 148 503 tabread \$0-urn;
#X obj 359 335 outlet;
#X obj 218 609 outlet;
#X obj 286 23 inlet;
#X obj 97 26 inlet;
#X obj 286 77 f \$1;
#X obj 297 47 loadbang;
#X obj 191 74 b;
#X obj 218 437 random;
#N canvas 689 538 264 239 count-down 0;
#X obj 59 66 inlet;
#X obj 127 60 inlet;
#X obj 59 159 outlet;
#X text 123 37 count from?;
#X text 54 35 trigger;
#X obj 59 96 bang;
#X obj 85 131 - 1;
#X obj 59 131 f;
#X connect 0 0 5 0;
#X connect 1 0 7 1;
#X connect 5 0 7 0;
#X connect 6 0 7 1;
#X connect 7 0 6 0;
#X connect 7 0 2 0;
#X restore 97 221 pd count-down;
#X text 355 361 bang if urn empty;
#X text 193 631 urn selection;
#X msg 218 343 seed \$1;
#X obj 218 147 f;
#X obj 345 143 table \$0-urn \$1;
#X obj 148 362 t a b;
#X obj 97 49 route bang seed clear;
#N canvas 549 246 251 276 gate_2 0;
#X obj 68 18 inlet;
#X obj 84 65 inlet;
#X obj 68 212 outlet;
#X obj 100 191 outlet;
#X obj 68 92 f 0;
#X obj 68 118 select 0 1;
#X obj 68 41 b;
#X connect 0 0 6 0;
#X connect 1 0 4 1;
#X connect 4 0 5 0;
#X connect 5 0 2 0;
#X connect 5 1 3 0;
#X connect 6 0 4 0;
#X restore 97 178 pd gate_2;
#N canvas 0 0 450 300 init-urn-table 0;
#N canvas 0 0 450 300 count 0;
#X obj 210 191 + 1;
#X obj 122 150 until;
#X obj 122 194 f;
#X obj 105 43 inlet;
#X msg 224 138 0;
#X obj 122 107 t a b;
#X obj 122 246 outlet;
#X connect 0 0 2 1;
#X connect 1 0 2 0;
#X connect 2 0 0 0;
#X connect 2 0 6 0;
#X connect 3 0 5 0;
#X connect 4 0 2 1;
#X connect 5 0 1 0;
#X connect 5 1 4 0;
#X restore 117 197 pd count;
#X obj 117 218 t a a;
#X obj 117 249 tabwrite \$0-urn;
#X obj 274 174 s \$0-urn;
#X msg 153 138 resize \$1;
#X obj 117 36 t a a;
#X obj 117 3 inlet;
#X obj 154 106 change;
#X obj 155 75 int;
#X connect 0 0 1 0;
#X connect 1 0 2 0;
#X connect 1 1 2 1;
#X connect 4 0 3 0;
#X connect 5 0 0 0;
#X connect 5 1 8 0;
#X connect 6 0 5 0;
#X connect 7 0 4 0;
#X connect 8 0 7 0;
#X restore 344 121 pd init-urn-table;
#X obj 286 97 t b a a a;
#X obj 97 278 t b b;
#X msg 155 153 0;
#X msg 170 176 1;
#N canvas 228 198 627 317 LICENSE-BSD 0;
#X text 121 56 This software is copyrighted by Miller Puckette \, Reality
Jockey Ltd. and others. The terms (the "Standard Improved BSD License")
apply to all files associated with the software unless explicitly disclaimed
in individual files.;
#X text 123 148 See the file LICENSE.txt for the full license text.
;
#X restore 433 40 pd LICENSE-BSD;
#X connect 0 0 7 0;
#X connect 2 0 0 0;
#X connect 2 1 1 1;
#X connect 3 0 5 0;
#X connect 3 0 13 1;
#X connect 4 0 25 0;
#X connect 4 1 20 0;
#X connect 5 0 1 0;
#X connect 8 0 10 0;
#X connect 9 0 21 0;
#X connect 10 0 24 0;
#X connect 11 0 10 0;
#X connect 12 0 10 0;
#X connect 13 0 2 0;
#X connect 14 0 4 0;
#X connect 17 0 13 0;
#X connect 18 0 17 0;
#X connect 20 0 3 0;
#X connect 20 1 13 0;
#X connect 21 0 22 0;
#X connect 21 1 18 0;
#X connect 21 2 12 0;
#X connect 22 0 14 0;
#X connect 22 1 6 0;
#X connect 24 0 26 0;
#X connect 24 1 14 1;
#X connect 24 2 13 1;
#X connect 24 3 23 0;
#X connect 25 0 6 0;
#X connect 25 1 27 0;
#X connect 26 0 22 1;
#X connect 27 0 22 1;
#X restore 64 178 pd urn;
#X obj 23 58 t b b b b;
#X obj 23 297 list;
#X obj 23 333 list prepend 0;
#X connect 0 0 9 0;
#X connect 1 0 9 1;
#X connect 2 0 0 0;
#X connect 3 0 7 0;
#X connect 3 0 11 1;
#X connect 4 0 3 0;
#X connect 5 0 10 0;
#X connect 7 0 3 1;
#X connect 9 0 4 0;
#X connect 10 0 11 0;
#X connect 10 1 2 0;
#X connect 10 2 1 0;
#X connect 10 2 3 1;
#X connect 10 3 8 0;
#X connect 11 0 12 0;
#X connect 12 0 6 0;
#X restore 325 51 pd randomOrder;
#N canvas 0 22 450 300 write 0;
#X obj 24 221 text define \$0-results;
#X msg 24 178 write \$1;
#X obj 24 27 r \$0-done;
#X obj 24 137 savepanel;
#X obj 181 32 r \$0-allowSave;
#X obj 24 63 spigot 0;
#X obj 182 74 r \$0-reset;
#X obj 182 110 0;
#X connect 1 0 0 0;
#X connect 2 0 5 0;
#X connect 3 0 1 0;
#X connect 4 0 5 1;
#X connect 5 0 3 0;
#X connect 6 0 7 0;
#X connect 7 0 5 1;
#X restore 0 288 pd write;
#X obj 136 356 s \$0-reset;
#N canvas 188 57 923 721 writeCurve 0;
#X obj 91 83 inlet;
#X obj -39 350 f;
#X obj -39 394 list prepend;
#X obj 174 425 t l;
#X obj -202 425 list;
#X obj 91 177 makefilename AUDIO/e%i.wav;
#X obj 266 323 readsf~ 2;
#X msg 266 282 open \$1 \, 1;
#X obj 266 364 dac~;
#X obj -202 557 text set \$0-results;
#X obj -40 256 1;
#X obj 24 259 0;
#X obj 91 213 t b b a;
#X obj -39 306 metro 200;
#X obj -202 469 list prepend;
#N canvas 0 22 585 485 once 0;
#X obj 108 66 inlet;
#X obj 108 371 outlet;
#X obj 315 109 bang;
#X msg 315 155 1;
#X obj 108 226 spigot;
#X msg 212 313 0;
#X obj 189 186 int 1;
#X obj 108 115 t a b;
#X obj 108 282 t a b;
#X obj 315 66 r \$0-end;
#X obj 373 27 r \$0-reset;
#X connect 0 0 7 0;
#X connect 2 0 3 0;
#X connect 3 0 6 1;
#X connect 4 0 8 0;
#X connect 5 0 6 1;
#X connect 6 0 4 1;
#X connect 7 0 4 0;
#X connect 7 1 6 0;
#X connect 8 0 1 0;
#X connect 8 1 5 0;
#X connect 9 0 2 0;
#X connect 10 0 2 0;
#X restore 266 244 pd once;
#X obj -15 511 t b f;
#X obj 174 477 t f b;
#X obj 316 464 0;
#X obj 277 508 f;
#X obj 329 508 + 1;
#X obj 91 121 t f f b;
#X obj 174 547 array set Curve;
#N canvas 0 22 450 300 reset 0;
#X obj 55 141 until;
#X obj 55 24 r \$0-init;
#X obj 55 183 f;
#X obj 109 183 + 1;
#X obj 180 152 0;
#X obj 55 62 t b b;
#X obj 55 226 outlet;
#X msg 55 100 13;
#X connect 0 0 2 0;
#X connect 1 0 5 0;
#X connect 2 0 3 0;
#X connect 2 0 6 0;
#X connect 3 0 2 1;
#X connect 4 0 2 1;
#X connect 5 0 7 0;
#X connect 5 1 4 0;
#X connect 7 0 0 0;
#X restore -15 470 pd reset;
#X obj 389 364 s \$0-end;
#X obj -202 165 r \$0-end;
#X obj 1 163 inlet;
#X obj 106 595 list length;
#X msg 106 631 resize \$1;
#X obj 106 667 s Curve;
#X obj 513 188 s \$0-tension.r;
#X msg 513 152 50;
#X obj 273 595 200;
#X obj -88 209 delay 2060;
#X obj 516 256 r \$0-reset;
#X msg 516 292 0;
#X obj -143 34 r \$0-reset;
#X msg -36 103 stop;
#X obj -143 70 t b b;
#X obj 251 92 print;
#X connect 0 0 21 0;
#X connect 0 0 39 0;
#X connect 1 0 2 0;
#X connect 1 0 17 0;
#X connect 2 0 3 0;
#X connect 2 0 4 1;
#X connect 3 0 2 1;
#X connect 4 0 14 0;
#X connect 4 0 27 0;
#X connect 5 0 12 0;
#X connect 6 0 8 0;
#X connect 6 1 8 1;
#X connect 6 2 24 0;
#X connect 7 0 6 0;
#X connect 10 0 13 0;
#X connect 11 0 13 0;
#X connect 12 0 33 0;
#X connect 12 1 2 1;
#X connect 12 2 14 1;
#X connect 12 2 15 0;
#X connect 13 0 1 0;
#X connect 14 0 9 0;
#X connect 15 0 7 0;
#X connect 16 0 9 0;
#X connect 16 1 9 1;
#X connect 17 0 22 0;
#X connect 17 1 19 0;
#X connect 18 0 19 1;
#X connect 19 0 20 0;
#X connect 19 0 22 1;
#X connect 20 0 19 1;
#X connect 21 0 5 0;
#X connect 21 1 9 1;
#X connect 21 2 18 0;
#X connect 21 2 31 0;
#X connect 21 2 32 0;
#X connect 23 0 16 0;
#X connect 25 0 4 0;
#X connect 25 0 11 0;
#X connect 26 0 1 1;
#X connect 27 0 28 0;
#X connect 28 0 29 0;
#X connect 31 0 30 0;
#X connect 32 0 28 0;
#X connect 33 0 10 0;
#X connect 34 0 35 0;
#X connect 35 0 6 0;
#X connect 36 0 38 0;
#X connect 37 0 33 0;
#X connect 38 0 11 0;
#X connect 38 1 37 0;
#X restore 0 251 pd writeCurve;
#X obj 180 43 pipe 2000;
#X connect 0 0 9 0;
#X connect 1 0 9 1;
#X connect 2 0 3 0;
#X connect 2 0 8 0;
#X connect 3 0 4 0;
#X connect 5 0 10 0;
#X connect 6 0 1 1;
#X connect 10 0 1 0;
#X coords 0 1 100 -1 70 240 1 0 0;
#X restore 289 163 graph;
#X obj 3 3 cnv 15 700 65 empty empty empty 20 12 0 14 -233017 -66577
0;
#X text 101 18 Musical Tension in Chord Progressions;
#N canvas 0 22 450 278 (subpatch) 0;
#X array Curve 200 float 4;
#X coords 0 100 199 0 250 240 1 0 0;
#X restore 430 163 graph;
#X text 277 105 More Tension, f 7;
#X text 281 406 Less Tension, f 7;
#N canvas 0 22 612 600 (subpatch) 0;
#X obj 0 0 cnv 15 150 300 empty empty empty 20 12 0 14 -1 -66577 0
;
#X obj 47 20 cnv 15 54 54 empty empty empty 20 12 0 14 -262144 -66577
0;
#X obj 49 22 bng 50 250 50 0 \$0-reset \$0-reset.r Reset 3 25 0 15
-1 -258699 -262144;
#X obj 15 94 cnv 15 120 50 empty \$0-go.r Sound::0 20 25 0 15 -1 -262144
0;
#X obj 15 151 cnv 15 54 54 empty empty empty 20 12 0 14 -262144 -66577
0;
#X obj 81 151 cnv 15 54 54 empty empty empty 20 12 0 14 -262144 -66577
0;
#X obj 17 153 bng 50 250 50 0 \$0-play \$0-play.r Play 8 25 0 15 -1
-258699 -262144;
#X obj 83 153 bng 50 250 50 0 \$0-next \$0-next.r Next 8 25 0 15 -1
-258699 -262144;
#X obj 45 230 cnv 15 54 54 empty \$0-submit.r empty 20 12 0 14 -1 -1
0;
#X obj 47 232 bng 50 250 50 0 \$0-done \$0-done.r Save 7 25 0 15 -1
-1 -1;
#X coords 0 1 100 -1 150 300 1 0 0;
#X restore 37 110 graph;
